M48
;GenerationSoftware,Autodesk,EAGLE,9.6.2*%
;CreationDate,2020-11-19T10:45:43Z*%
FMAT,2
ICI,OFF
METRIC,TZ,000.000
T5C0.800
T4C0.813
T3C1.016
T2C1.800
T1C3.600
%
G90
M71
T1
X14000Y10500
X14000Y55500
X104000Y10500
X104000Y55500
T2
X83600Y18000
X115600Y1900
T3
X70000Y25810
X70000Y18190
X8000Y23730
X8000Y26270
X46730Y26070
X49270Y26070
X46730Y23530
X49270Y23530
T4
X55500Y5420
X58500Y15580
X58500Y5420
X61500Y15580
X61500Y5420
X48500Y13770
X80500Y14460
X67920Y12500
X112500Y58230
X112500Y60770
X67920Y10000
X78080Y10000
X78080Y12500
X55500Y15580
X48500Y11230
X107580Y34500
X97420Y34500
X44000Y10670
X44000Y20830
X3500Y23784
X3500Y25816
X98000Y44540
X98000Y39460
X80500Y19540
T5
X31120Y5380
X28580Y5380
X26040Y5380
X93660Y22000
X20960Y5380
X18420Y5380
X15880Y5380
X13340Y5380
X10800Y5380
X8260Y5380
X5720Y5380
X83500Y22000
X86040Y22000
X23500Y5380
X88580Y22000
X91120Y22000
X96200Y22000
X98740Y22000
X111050Y33000
X112350Y33000
X113650Y33000
X97690Y49500
X100230Y49500
X102770Y49500
X114950Y33000
X41280Y20620
X38740Y20620
X36200Y20620
X33660Y20620
X31120Y20620
X28580Y20620
X26040Y20620
X23500Y20620
X20960Y20620
X10800Y20620
X18420Y20620
X15880Y20620
X13340Y20620
X8260Y20620
X5720Y20620
X41280Y5380
X38740Y5380
X36200Y5380
X33660Y5380
X105310Y49500
M30