G04 EAGLE Gerber RS-274X export*
G75*
%MOMM*%
%FSLAX34Y34*%
%LPD*%
%INTop Copper*%
%IPPOS*%
%AMOC8*
5,1,8,0,0,1.08239X$1,22.5*%
G01*
%ADD10R,1.700000X1.700000*%
%ADD11C,1.700000*%
%ADD12C,1.054000*%
%ADD13P,2.336880X8X112.500000*%
%ADD14R,1.676400X1.676400*%
%ADD15P,1.787026X8X22.500000*%
%ADD16P,1.787026X8X292.500000*%
%ADD17P,1.840063X8X292.500000*%
%ADD18C,1.320800*%
%ADD19P,1.649562X8X112.500000*%
%ADD20P,1.429621X8X292.500000*%
%ADD21P,1.787026X8X202.500000*%
%ADD22P,1.787026X8X112.500000*%
%ADD23C,1.524000*%
%ADD24C,7.000000*%


D10*
X835000Y220000D03*
D11*
X860400Y220000D03*
X885800Y220000D03*
X911200Y220000D03*
X936600Y220000D03*
X962000Y220000D03*
X987400Y220000D03*
D12*
X1110500Y324730D02*
X1110500Y335270D01*
X1123500Y335270D02*
X1123500Y324730D01*
X1136500Y324730D02*
X1136500Y335270D01*
X1149500Y335270D02*
X1149500Y324730D01*
D13*
X700000Y181900D03*
X700000Y258100D03*
D14*
X412800Y206200D03*
D12*
X387400Y211470D02*
X387400Y200930D01*
X362000Y200930D02*
X362000Y211470D01*
X336600Y211470D02*
X336600Y200930D01*
X311200Y200930D02*
X311200Y211470D01*
X285800Y211470D02*
X285800Y200930D01*
X260400Y200930D02*
X260400Y211470D01*
X235000Y211470D02*
X235000Y200930D01*
X209600Y200930D02*
X209600Y211470D01*
X184200Y211470D02*
X184200Y200930D01*
X158800Y200930D02*
X158800Y211470D01*
X133400Y211470D02*
X133400Y200930D01*
X108000Y200930D02*
X108000Y211470D01*
X82600Y211470D02*
X82600Y200930D01*
X57200Y200930D02*
X57200Y211470D01*
X412800Y59070D02*
X412800Y48530D01*
X387400Y48530D02*
X387400Y59070D01*
X362000Y59070D02*
X362000Y48530D01*
X336600Y48530D02*
X336600Y59070D01*
X311200Y59070D02*
X311200Y48530D01*
X285800Y48530D02*
X285800Y59070D01*
X260400Y59070D02*
X260400Y48530D01*
X235000Y48530D02*
X235000Y59070D01*
X209600Y59070D02*
X209600Y48530D01*
X184200Y48530D02*
X184200Y59070D01*
X158800Y59070D02*
X158800Y48530D01*
X133400Y48530D02*
X133400Y59070D01*
X108000Y59070D02*
X108000Y48530D01*
X82600Y48530D02*
X82600Y59070D01*
X57200Y59070D02*
X57200Y48530D01*
D15*
X679200Y100000D03*
X780800Y100000D03*
X679200Y125000D03*
X780800Y125000D03*
D16*
X555000Y155800D03*
X555000Y54200D03*
X585000Y155800D03*
X585000Y54200D03*
X615000Y155800D03*
X615000Y54200D03*
D10*
X976900Y495000D03*
D17*
X1002300Y495000D03*
X1027700Y495000D03*
X1053100Y495000D03*
D18*
X86604Y237300D02*
X73396Y237300D01*
X73396Y262700D02*
X86604Y262700D01*
D19*
X1125000Y582300D03*
X1125000Y607700D03*
D20*
X467300Y260700D03*
X492700Y260700D03*
X467300Y235300D03*
X492700Y235300D03*
D19*
X485000Y112300D03*
X485000Y137700D03*
D21*
X1075800Y345000D03*
X974200Y345000D03*
D22*
X440000Y106700D03*
X440000Y208300D03*
D23*
X35000Y237840D03*
D19*
X35000Y258160D03*
D16*
X980000Y445400D03*
X980000Y394600D03*
X805000Y195400D03*
X805000Y144600D03*
D24*
X140000Y105000D03*
X140000Y555000D03*
X1040000Y105000D03*
X1040000Y555000D03*
M02*
